<svg xmlns="http://www.w3.org/2000/svg" width="25" height="25" viewBox="0 0 25 25">
  <g id="layer1" transform="translate(-180.815 -91.992)">
    <g id="g183" transform="translate(180.815 91.992)">
      <path id="path155" d="M76.494,144.263l.518.163.23.226q.027.952,5.326,6.165,2.328,2.174,3.055,2.889,3.2,3.264,3.756,3.81,5.169,4.766,5.47,4.57a6.874,6.874,0,0,0,2.972-.435l.524.284a5.962,5.962,0,0,0,.664,1.695q-.282.591.11,5.435l-.212.138a2.572,2.572,0,0,0-1.686-.153q-1.357-.148-5.369-.881a32.169,32.169,0,0,0-4.467-4.973q-2.877-2.6-3.2-2.919l-3.138-3.086a68.021,68.021,0,0,0-5.252-4.587q-1.3-2.062-.8-2.984,1.074-5.08,1.5-5.357Zm.338,7.164a1.2,1.2,0,0,1,.377.255q-.33-4.29.006-4.509l.224.1.077.075a32.406,32.406,0,0,0,.306,4.932l.306.3.071-.046q-.022-5.117-.1-5.192-.714-.818-1.154-1.25a19.681,19.681,0,0,0-.113,5.33Zm-.746-1.892-.1,1.064.306.3q-.187-1.255.008-1.382l-.077-.075Zm2.654,3.652.612.6a33.7,33.7,0,0,1-.082-4.827.244.244,0,0,1,.295.058l.077.075q.086,4.919.317,5.175l.077.075.071-.046a13.847,13.847,0,0,1-.135-4.417l.071-.046.224.1.077.075a26.987,26.987,0,0,0,.229,4.857l.536.527q-.706-4.921-.246-5.221l-2.066-2.032-.082-.2L78.64,148a41.4,41.4,0,0,0,.1,5.192Zm-2.916-1.479a2.638,2.638,0,0,0,.4.74q3.741,3.1,4.1,3.458,2.3,2.38,3.067,3.132,5.761,5.319,6.105,5.657,1.14,1.353,1.7,1.9l.077.075.071-.046a12.846,12.846,0,0,0-1.171-1.615q-4.135-3.719-13.67-12.866l-.606-.481ZM81.718,156l.153.151-.547-5.4-.071.046a15.451,15.451,0,0,0,.464,5.2Zm.759.631.071-.046q-.155-.963-.459-5.082l-.23-.226a49.932,49.932,0,0,0,.617,5.354Zm.536.527,4.974,4.893.142-.092a31.972,31.972,0,0,1-.271-4.2l.071-.046a.244.244,0,0,1,.295.058l.077.075a25.367,25.367,0,0,0,.447,4.84,1.53,1.53,0,0,1,.453.33l.071-.046a29.845,29.845,0,0,1-.6-4.99l-1.378-1.355a18.985,18.985,0,0,0,.124,4.174l-.142.092-.224-.1-.077-.075a26.594,26.594,0,0,1-.147-4.66l-1.225-1.2.654,4.58a.219.219,0,0,1-.295-.058l-.077-.075q-.372-1.7-.895-5.048l-.23-.226a28.086,28.086,0,0,0,.6,4.99l-.071.046A.219.219,0,0,1,85,159a45.457,45.457,0,0,1-.841-5.459l-.071.046.424,4.354-.141.092a.219.219,0,0,1-.294-.058l-.529-5.036-.071.046q.258,4.306.506,4.551l-.283.185-.23-.226q-.122-.265-.535-5.158l-.306-.3q.166,3.521.388,5.129Zm6.876,6.532.141-.092a25.231,25.231,0,0,1-.543-3.776.243.243,0,0,1,.295.058l.153.151a21.9,21.9,0,0,0,.713,4.291l.312.422q-.25-2.215-.365-4.643.142-.092.371.134l.512,4.672a3.361,3.361,0,0,0,.57,1.255,26.726,26.726,0,0,1-.4-5.371l.071-.046-.077-.075q-.765-.753-2.367-2.212.163,4.618.612,5.233Zm2.772,3.074.077.075.071-.046q-.459-3.549-.535-5.158l.071-.046a.243.243,0,0,1,.295.058l.077.075a47.244,47.244,0,0,0,.606,5.112q.168.141.295.058l-.447-4.84-.153-.151-.989-.857a38.478,38.478,0,0,0,.635,5.719Zm1.468.17.077.075a9.985,9.985,0,0,1,1.969-.031q.349-2.668-.225-3.232.106-.069-.034-.729a.219.219,0,0,0-.295-.058l.248,3.718-.071.046a.219.219,0,0,1-.295-.058l-.466-3.7a.219.219,0,0,0-.295-.058L94.6,163a17.509,17.509,0,0,1,.461,3.579l-.071.046a.219.219,0,0,1-.295-.058l-.549-3.9a1.2,1.2,0,0,1-.377-.255l-.071.046q.09,1.912.43,4.475Zm2.3-3.876q.31.33.325,3.793l-.071.046q.115.113.513.041a29.913,29.913,0,0,0-.367-3.14l.071-.046a.243.243,0,0,1,.295.058l.088.318.077.075a4.068,4.068,0,0,0,.008-1.382l-.077-.075a3.422,3.422,0,0,1-.861.311Zm1.879,1.153.077.075.142-.092-.034-.729-.071.046q.011.619-.113.7Zm-6.183,3.529.077.075q4.939,1.036,5.947.755a4.536,4.536,0,0,0-.547-.77,32.09,32.09,0,0,1-5.187-.123.7.7,0,0,1-.289.063Zm6.169-2.269q.262,2.082-.18,2.37a7.061,7.061,0,0,1,.547.77,11.937,11.937,0,0,1-.149-3.157l-.077-.075Z" transform="translate(-74.547 -144.262)" fill="#fff"/>
      <path id="path155-6" d="M74.547,169.19l.05-.453.211-.245q1.167-.3,6.05-5.952,2-2.451,2.673-3.227,3.092-3.449,3.6-4.042,4.37-5.425,4.041-5.6a4.321,4.321,0,0,0-1.4-2.2l.2-.493a9.35,9.35,0,0,0,1.9-1.009,41.138,41.138,0,0,0,6.668-1.655l.232.126a1.43,1.43,0,0,0,.3,1.365q.213,1.106.477,4.46a34.177,34.177,0,0,0-4.83,4.935q-2.366,3-2.666,3.351l-2.891,3.349a60.877,60.877,0,0,0-4.125,5.438q-2.163,1.614-3.447,1.486-6.576.625-7.041.372Zm8.733-2.332a.909.909,0,0,1,.2-.369q-5.193,1.5-5.561,1.3l.063-.205.071-.082a61.422,61.422,0,0,0,5.991-1.663l.282-.327-.077-.042q-6.3,1.494-6.372,1.576-.8.8-1.206,1.265a38.2,38.2,0,0,0,6.6-1.45Zm-2.115,1.13,1.339-.232.282-.327a4.075,4.075,0,0,1-1.706.393l-.071.082Zm3.73-3.133.564-.653q-3.845,1.09-5.928,1.457-.137-.1-.014-.248l.071-.082a47.247,47.247,0,0,0,6.288-1.742l.071-.082-.077-.042a26.492,26.492,0,0,1-5.406,1.381l-.077-.042.063-.205.071-.082a51.273,51.273,0,0,0,5.921-1.581l.494-.572q-5.861,1.974-6.365,1.7l-1.9,2.205-.218.121.077.042q4.268-.92,6.372-1.576Zm-.974,2.711a3.614,3.614,0,0,0,.8-.527q2.733-3.825,3.068-4.213,2.263-2.49,2.968-3.306,4.879-6.048,5.2-6.415,1.336-1.284,1.847-1.876l.071-.081-.077-.042a15.244,15.244,0,0,0-1.65,1.383Q92.761,156.8,84.26,166.91l-.416.614Zm3.576-5.857.141-.164-6.5,1.987.077.042a28.8,28.8,0,0,0,6.281-1.866Zm.557-.777-.077-.042q-1.142.4-6.132,1.826l-.211.245q3.882-1.1,6.422-2.029Zm.494-.572,4.583-5.309-.155-.084q-3.137.995-5.1,1.426l-.077-.042q-.137-.1-.014-.248l.071-.082a47.5,47.5,0,0,0,5.836-1.747,1.206,1.206,0,0,1,.275-.451l-.077-.042a55.011,55.011,0,0,1-5.977,1.911l-1.269,1.47a36.587,36.587,0,0,0,5.11-1.3l.155.084-.063.205-.071.082a51,51,0,0,1-5.7,1.46L84.941,159l5.456-1.834q.155.084.014.248l-.071.082q-1.984.781-5.963,2.158l-.211.245a52.19,52.19,0,0,0,5.977-1.911l.077.042q.155.085.014.248-1.8.763-6.485,2.235l.077.042,5.244-1.589.155.084q.155.084.014.248l-6.055,1.868.077.042a35.492,35.492,0,0,0,5.463-1.71l.31.169-.211.245q-.291.172-6.2,1.908l-.282.327q4.293-1.146,6.21-1.784Zm6.05-7.271L94.443,153a45.9,45.9,0,0,1-4.5,1.515q-.138-.1-.014-.248l.141-.164a39.352,39.352,0,0,0,5.082-1.8l.43-.366q-2.657.835-5.618,1.626-.155-.084.057-.329l5.611-1.75a5.013,5.013,0,0,0,1.382-.809,50.6,50.6,0,0,1-6.506,1.863l-.077-.042-.071.081q-.705.817-2.038,2.492,5.646-1.461,6.274-1.99Zm2.983-3.059.071-.082-.077-.042q-4.242,1.384-6.2,1.908l-.077-.042q-.138-.1-.014-.248l.071-.082q3.623-1.03,6.126-1.95.124-.172-.014-.248l-5.836,1.747-.141.164-.769,1.022a71.381,71.381,0,0,0,6.866-2.148Zm-.218-1.2.071-.082a5.673,5.673,0,0,1-.612-1.533q-3.39.5-3.919,1.11-.116-.064-.888.237-.141.164.014.248l4.511-1.268.077.042q.155.085.014.248L92.2,149.266q-.141.164.014.248l.155.084a32.071,32.071,0,0,1,4.279-1.394l.077.042q.155.084.014.248L92.1,150.049a.908.908,0,0,1-.2.369l.077.042q2.331-.623,5.392-1.629Zm-5.448-.682q.316-.338,4.582-1.349l.077.042q.106-.123-.1-.414-.243.019-3.764,1.194l-.077-.042q-.138-.1-.014-.248l.366-.161.071-.082a7.756,7.756,0,0,0-1.706.393l-.071.082a2.768,2.768,0,0,1,.634.585Zm.875-1.8.071-.082-.155-.084-.888.237.077.042a1.993,1.993,0,0,1,.9-.113Zm6.151,3.824.071-.082q-.16-4.168-.8-4.876a5.45,5.45,0,0,0-.79.651,17.639,17.639,0,0,1,1.359,4.1.487.487,0,0,1,.162.208Zm-4.594-4.178q2.49-.806,2.974-.543a8.428,8.428,0,0,1,.789-.651,22.849,22.849,0,0,1-3.849,1.028l-.071.082Z" transform="translate(-74.547 -144.262)" fill="#fff"/>
    </g>
  </g>
</svg>
