<?xml version="1.0" encoding="UTF-8" standalone="no"?>
<svg
   xmlns:dc="http://purl.org/dc/elements/1.1/"
   xmlns:cc="http://creativecommons.org/ns#"
   xmlns:rdf="http://www.w3.org/1999/02/22-rdf-syntax-ns#"
   xmlns:svg="http://www.w3.org/2000/svg"
   xmlns="http://www.w3.org/2000/svg"
   xmlns:sodipodi="http://sodipodi.sourceforge.net/DTD/sodipodi-0.dtd"
   xmlns:inkscape="http://www.inkscape.org/namespaces/inkscape"
   width="124"
   height="39"
   viewBox="0 0 124 39"
   version="1.1"
   id="svg337"
   sodipodi:docname="menuMobile.svg"
   inkscape:version="1.0.2 (e86c8708, 2021-01-15)">
  <metadata
     id="metadata343">
    <rdf:RDF>
      <cc:Work
         rdf:about="">
        <dc:format>image/svg+xml</dc:format>
        <dc:type
           rdf:resource="http://purl.org/dc/dcmitype/StillImage" />
        <dc:title></dc:title>
      </cc:Work>
    </rdf:RDF>
  </metadata>
  <defs
     id="defs341" />
  <sodipodi:namedview
     pagecolor="#00ffff"
     bordercolor="#666666"
     borderopacity="1"
     objecttolerance="10"
     gridtolerance="10"
     guidetolerance="10"
     inkscape:pageopacity="0"
     inkscape:pageshadow="2"
     inkscape:window-width="1680"
     inkscape:window-height="1050"
     id="namedview339"
     showgrid="false"
     inkscape:zoom="10.209677"
     inkscape:cx="62"
     inkscape:cy="19.5"
     inkscape:window-x="0"
     inkscape:window-y="0"
     inkscape:window-maximized="0"
     inkscape:current-layer="Menu" />
  <g
     id="Groupe_34"
     data-name="Groupe 34"
     transform="translate(518.728,-27)">
    <g
       aria-label="Menu"
       transform="translate(-434.728,58)"
       id="Menu"
       style="font-size:37px;font-family:SketchGothicSchool, 'Sketch Gothic School';fill:#ffffff">
      <path
         d="m -28.318626,-26.575684 q 2.131836,1.065918 3.251953,3.107422 0.541992,1.427246 0.65039,1.517578 1.716309,-0.867187 3.97461,-3.324218 0,-0.289063 0.361328,-0.289063 l 0.505859,0.07227 0.144531,-0.07227 2.746094,1.228516 q 0.325196,0.0542 1.806641,1.662109 l 0.433594,0.07227 q 0.975586,0 4.408203,-1.951172 1.481445,-0.614258 2.8906247,-1.373047 l 0.2890625,-0.07227 q 0.3251953,0.126465 0.5058594,0.433594 v 0.07227 q -0.054199,0.578125 -0.5058594,0.578125 0.2890625,1.571777 0.2890625,3.902344 v 2.746093 l -0.578125,7.949219 v 0.07227 q 0.1083985,3.1977536 1.0839844,3.6132809 l 0.3613281,-0.072266 q 0.2529297,0.5058594 0.6503906,0.578125 0.7949219,-0.072266 1.2285157,-0.2167969 0.7226562,0 0.7226562,0.3613281 -0.7226562,3.1074219 -1.2285156,3.1074219 -2.7822266,2.74609376 -4.9863281,3.9746094 -0.1264649,0.072266 -0.2890625,0.072266 h -0.4335935 q -0.126465,0 -0.578125,-0.86718749 -0.560059,-0.54199219 -1.734375,-2.09570311 -2.3125,-2.1499024 -2.3125,-3.1796875 -0.108399,0 -0.216797,0.2890625 l 0.144531,1.0117187 q -0.180664,0.3613282 -1.589844,1.3007813 -2.908691,3.25195311 -3.251953,3.25195311 l -0.144531,0.0722656 q -0.325195,-0.14453125 -0.361328,-0.2890625 v -0.2890625 q 0,-0.0722656 0.07227,-0.0722656 -0.560058,-0.77685547 -0.939453,-1.80664061 -0.07227,0 -1.300781,-1.8789063 -0.162598,-0.072266 -0.939453,-0.6503906 v 0.6503906 q 0,0.5419922 -1.083984,0.7226563 -2.276368,1.1020508 -4.769532,3.17968748 l -0.505859,0.14453125 q -0.180664,0 -0.289063,-0.578125 -0.65039,-1.26464843 -1.734375,-2.16796873 l -2.095703,-1.2285156 q -0.794922,0 -1.589843,-0.2167969 -0.849121,0 -2.167969,2.1679687 -0.361328,1.04785159 -0.361328,1.58984378 0,1.62597652 1.878906,2.38476562 0.632324,0.668457 2.962891,1.0117188 3.161621,0.2890625 3.902343,0.2890625 0.379395,0 1.66211,-0.7226563 v -0.072266 q -1.029785,0 -2.095703,-1.2285156 v -0.578125 q 0,-0.48779301 1.878906,-1.01171879 0.361328,0 0.361328,-0.0722656 2.167969,0 2.167969,1.22851562 -0.25293,1.3369141 -0.794922,1.8066406 -1.842774,1.6621094 -3.251953,1.6621094 h -0.144532 q -5.97998,0 -8.021484,-1.9511719 -1.517578,-0.758789 -1.517578,-2.45703122 v -0.93945312 q 0,-0.0722656 0.07227,-0.0722656 l -0.216797,-0.36132812 V -1.1381836 q 0.505859,-2.6918945 2.529297,-4.9140625 1.987304,-1.4453125 2.746093,-1.4453125 v -0.072266 q -2.186035,0 -3.46875,-3.1074218 -0.144531,-1.047852 -0.144531,-1.228516 0,-1.644043 1.15625,-3.396484 0.325195,-0.216797 0.505859,-0.216797 0.144532,0.07227 0.216797,0.07227 1.047852,-1.228516 2.529297,-1.228516 2.276367,0 3.179688,2.095703 0.07227,0.487793 0.07227,0.794922 v 0.216797 q -0.541992,2.095703 -2.095703,2.095703 h -0.722656 q -0.234863,0 -1.445313,-0.867187 l -0.144531,-0.07227 v 0.07227 q 0.686524,1.373046 3.46875,1.373046 1.373047,-0.361328 1.806641,-1.15625 0.578125,-1.15625 0.578125,-2.601562 0,-0.397461 -0.216797,-1.373047 h -0.07227 v 0.216797 q 0.144532,0.270996 0.144532,0.578125 v 1.15625 q 0,1.264648 -0.650391,1.734375 -0.289063,-0.144531 -0.289063,-0.361328 0.361329,-0.650391 0.361329,-1.011719 v -1.373047 q 0,-1.373047 -1.083985,-1.878906 -3.721679,-1.517578 -4.263672,-1.517578 -2.890625,-0.180664 -2.890625,-0.650391 0,-0.144531 0.07227,-1.589844 -0.144531,-0.234863 -0.144531,-0.433593 0.07227,-0.144532 0.07227,-0.216797 -1.445312,-0.596192 -1.445312,-1.083985 0.234863,-0.65039 0.722656,-0.65039 0.25293,0 0.722656,0.65039 0.903321,0.361329 1.445313,0.361329 h 0.289062 q 1.264649,0 6.070313,-3.396485 0.487793,-1.011719 1.011719,-1.011719 z m 0.07226,1.228516 q -0.307129,0.831055 -4.552734,3.251953 -1.246582,0.812988 -2.023438,0.939453 v 0.07227 q 0.25293,0 0.650391,0.07227 0,-0.415528 0.939453,-0.578125 2.095703,-1.589844 5.275391,-3.035157 h 0.07227 q 0.144532,0.01807 0.144532,0.144532 v 0.144531 q -0.198731,0.289062 -3.97461,2.3125 l -1.878906,1.373047 q 0.812988,0.361328 0.867187,0.361328 0.487793,-0.487793 5.419922,-3.97461 0,-0.144531 0.216797,-0.144531 -0.307129,-0.415527 -1.15625,-0.939453 z m 8.455078,0.867188 q -1.15625,1.517578 -3.902343,3.396484 l -0.578125,0.216797 v 0.144531 q 0.614257,0.07227 0.939453,0.07227 h 0.07227 v -0.07227 q -0.216797,0 -0.216797,-0.144531 v -0.07227 q 0,-0.361328 0.289063,-0.433594 0.144531,0.07227 0.216797,0.07227 1.192383,-0.686523 4.263672,-2.818359 -0.45166,-0.07227 -1.083985,-0.361328 z m 10.8398441,0.578125 0.072266,0.361328 -3.4687497,2.601562 h -0.289063 q -0.162597,0 -0.216797,-0.361328 0,-0.216797 0.650391,-0.433594 0.921387,-0.849121 2.023437,-1.445312 v -0.07227 h -0.07226 q -2.240235,1.246582 -3.324219,1.589844 1.15625,1.445312 1.15625,2.023437 h 0.07227 q 1.517578,-1.011718 3.035156,-2.529296 h 0.1445312 q 0.2167969,0 0.2167969,0.289062 -1.6982421,1.951172 -3.3964841,2.890625 l 0.07226,0.505859 v 0.07227 l -0.07226,0.505859 h 0.07226 l 3.8300785,-2.818359 q 0.072266,-0.216797 0.4335937,-0.216797 0.1083985,0 0.2167969,0.216797 v 0.144531 q -0.054199,0.162598 -4.0468751,3.035157 -0.578125,0.379394 -0.578125,0.939453 v 1.445312 q 3.0893556,-3.089355 4.6972657,-3.613281 0.018066,0.144531 0.1445313,0.144531 v -2.095703 q 0,-1.174316 -0.2167969,-3.613281 -0.1445313,0 -1.15625,0.433594 z m -17.9218751,-0.216797 q -0.25293,0.469726 -2.890625,2.3125 -2.222168,1.589843 -2.3125,1.589843 v 0.07227 q 0.523926,0.126465 0.794922,0.289063 4.751465,-3.685547 4.914062,-3.685547 -0.234863,-0.415528 -0.505859,-0.578125 z m 3.902344,3.396484 v 0.07227 q 0.632324,0 0.939453,0.361328 0.885254,-0.469727 4.335937,-2.746094 0.397461,-0.216797 0.650391,-0.216797 l 0.144531,0.216797 v 0.144531 q -0.09033,0.180664 -1.300781,0.722657 -1.752441,1.318847 -3.396484,2.384765 0.505859,0.307129 0.505859,0.867188 h 0.07227 q 1.15625,-0.216797 4.11914,-2.457032 h 0.216797 q 0.144531,0.01807 0.144531,0.144532 v 0.144531 q -2.276367,2.077637 -4.408203,2.746094 0.144532,1.192382 0.144532,1.878906 1.517578,-1.15625 4.625,-3.107422 0.126464,0.07227 0.289062,0.07227 v -0.867188 q 0,-0.686523 0.216797,-1.589844 -1.264648,-1.625976 -2.3125,-1.80664 v -0.07227 q -4.028809,2.619629 -4.986328,3.107422 z m -7.660156,1.083984 q 1.824707,0.993653 2.095703,1.300782 0.722656,-0.433594 3.179687,-2.3125 v -0.144532 q 0,-0.234863 -0.144531,-1.011718 h -0.07227 q -2.854492,2.366699 -3.974609,2.746093 -0.289063,-0.108398 -0.289063,-0.216796 v -0.144532 q 0.09033,-0.19873 0.794922,-0.433593 1.445313,-1.011719 3.251953,-2.529297 -0.09033,-0.650391 -0.361328,-0.650391 -1.644043,1.138184 -4.480468,3.396484 z m 15.898437,-1.734375 q -0.07227,0.180664 -0.07227,1.373047 1.011719,0.469727 1.011719,1.66211 0.144531,0 0.144531,1.589843 v 0.650391 q 0,1.102051 -0.578125,5.492188 v 0.216796 q 0,1.4272465 0.07227,4.2636723 0.144531,0.2529297 0.144531,0.6503906 l 0.289063,-0.2167969 q -0.07227,-1.0839843 -0.07227,-1.5898437 v -0.9394531 q 0.289063,-5.5283202 0.433594,-10.3339842 -0.108398,0 -0.216797,-0.216797 v -0.144531 l 0.216797,-0.289063 q 0,-0.668457 -1.373047,-2.167969 z m -21.751953,0.867188 q 0,0.270996 -0.144531,1.083984 4.191406,0.50586 4.191406,0.867188 3.685547,1.174316 3.685547,1.951172 h 0.07227 v -0.07227 q -0.307128,-1.065918 -2.601562,-2.095703 -1.86084,-0.505859 -3.541016,-1.300781 -1.228515,-0.216797 -1.662109,-0.433594 z m 8.310547,2.601562 q 0.216797,0.325196 0.216797,0.433594 l 2.890625,-2.023437 q -0.144532,-0.379395 -0.144532,-0.578125 -1.336914,1.047851 -2.96289,2.167968 z m 4.191406,-1.734375 q 0,0.07227 -0.07227,0.07227 0.162598,1.15625 0.289063,1.15625 0,-0.289062 0.433594,-0.289062 h 0.07227 q 0.975586,0 1.300782,1.589843 v 0.50586 h 0.07226 v -0.578125 q -0.162597,-1.951172 -0.578125,-1.951172 -0.361328,-0.50586 -0.433594,-0.50586 l -0.722656,0.07227 v -0.07227 l -0.144531,0.07227 h -0.07227 z m 9.105469,0.289063 q -0.50586,2.475098 -0.50586,12.4296874 0.216797,0.8671875 0.722657,0.8671875 l -0.07227,-0.1445312 q -0.07227,-2.8364258 -0.07227,-4.2636717 v -0.144531 q 0.578125,-3.938477 0.578125,-5.78125 v -1.083985 q -0.162597,-1.878906 -0.578125,-1.878906 z m -5.925781,3.613281 v 0.650391 h 0.07226 q 1.589844,-1.300781 3.757813,-2.601563 h 0.144531 q 0.108398,0 0.216797,0.216797 v 0.144531 q -0.0542,0.162598 -2.095703,1.373047 -1.915039,1.517578 -2.095703,1.517578 v 1.589844 q 0.668457,0 3.251953,-2.167969 1.228515,-0.957519 1.228515,-1.083984 0.162598,-1.896973 0.361328,-2.890625 h -0.07227 q -3.197754,1.969238 -4.769531,3.251953 z m -6.865235,-1.300781 q 0.50586,1.318848 0.50586,1.734375 2.041504,-1.734375 2.3125,-1.734375 v -0.722656 h -0.07227 q -1.842773,1.517578 -2.095703,1.517578 h -0.07227 q -0.162597,0 -0.216797,-0.361328 l 2.384766,-1.878907 v -0.216796 q 0,-0.144532 -0.144531,-0.144532 -1.644043,1.264649 -2.601563,1.806641 z m 3.830078,-1.300781 q 0.07227,0.849121 0.07227,1.228515 v 0.794922 q 0,1.625977 -1.806641,5.13086 -2.402832,2.9628902 -5.419922,2.9628902 h -0.216796 q -0.126465,0 -0.722657,0.2890625 v 0.072266 q 2.095703,0 6.576172,1.5175781 1.210449,0.2890625 2.240235,0.2890625 0.07226,-2.3125 0.722656,-9.3945309 0,-2.330567 -0.722656,-2.673828 -0.650391,0 -0.650391,-0.216797 z m 11.417969,3.902343 v 1.083985 l -0.07227,0.505859 h 0.07227 q 2.5654298,-1.842773 3.9746095,-3.107422 h 0.1445312 q 0.1083985,0 0.2167969,0.216797 v 0.07227 q -0.7226563,0.849121 -3.6855466,3.107422 -0.560059,0.289062 -0.650391,0.289062 0,-0.07226 -0.07227,-0.07226 -0.144531,0.433593 -0.144531,1.878906 v 0.433594 l 3.6855471,-2.962891 q 0.3432617,-0.433594 0.7226562,-0.433594 l 0.2890625,0.216797 v -0.144531 q 0,-1.951172 0.3613282,-4.986328 -1.8608399,1.120117 -3.757813,2.818359 -0.505859,0.632324 -1.083984,1.083984 z m -14.742187,0 v 0.50586 q 0.722656,-0.578125 2.3125,-2.023438 v -0.433593 h -0.07227 q -1.300781,0.90332 -2.240234,1.951171 z m -7.949219,0.794922 h -0.361328 q -0.144532,0.50586 -0.144532,0.867188 v 0.433594 q 0,2.4750972 4.119141,3.1074214 h 0.433594 q 0.70459,-0.3613281 0.867187,-0.3613281 0,0.1083984 0.216797,0.2167969 0.343262,0 0.867188,-0.578125 -0.289063,0 -0.289063,-0.2890622 -0.668457,0.2890622 -1.228515,0.2890622 h -0.722657 q -2.493164,0 -3.685547,-2.0234372 l -0.07227,-0.722657 v -0.505859 q 0,-0.650391 0.65039,-0.650391 0.144532,0.07227 0.216797,0.07227 0,-0.216797 0.433594,-0.505859 l 0.144531,0.07227 q 1.354981,-0.921386 1.66211,-1.300781 -0.162598,0 -0.289063,-0.07227 -0.794922,0.361329 -2.818359,1.951172 z m 0.144531,-0.794922 q 0.198731,-0.0542 1.373047,-1.083984 h -0.07227 q -0.343261,0.126465 -1.300781,1.083984 z m 14.380859,2.167969 h -0.07227 l -0.144531,-0.07226 v 0.07226 q 0.07226,2.131836 0.07226,3.1796877 0.07227,0.6323242 0.07227,0.7226562 l 3.46875,-2.8183589 h 0.216797 q 0.162597,0 0.216797,0.361328 -3.125489,2.6015622 -3.830079,3.0351559 v 0.8671875 h 0.07227 q 2.457031,-1.6621094 2.746094,-1.9511719 h 0.07227 q 0.216797,0.2348633 0.216797,0.3613282 -0.45166,0.5600586 -2.746093,2.0957031 h -0.216797 l -0.144532,-0.072266 q 0,0.9213867 -0.433593,1.3730468 v 0.072266 h 0.216797 q 3.233886,-2.6557618 3.396484,-2.6738282 0.289062,0.1083985 0.289062,0.2167969 v 0.1445313 q -0.343261,0.4155273 -3.251953,2.6015625 v 0.072266 q 0.144532,0.2529297 0.433594,0.3613281 0,-0.2709961 0.722656,-0.4335937 2.457032,-1.8789063 2.746094,-1.8789063 0,0.072266 0.07227,0.072266 0,-0.2167968 -0.07227,-0.5058593 l 0.144531,-8.1660152 q -3.559082,2.818359 -4.263672,2.96289 z m -13.224609,-1.228515 q 0.90332,0.469726 1.300781,0.794921 0,0.216797 0.289063,0.216797 1.517578,-0.162597 1.517578,-1.083984 v -0.505859 q -1.445313,1.15625 -1.806641,1.15625 -0.108398,0 -0.216797,-0.216797 v -0.144532 q 1.734375,-1.300781 1.878907,-1.300781 v -0.07226 q -0.162598,-0.270997 -0.578125,-0.50586 -2.222168,1.66211 -2.384766,1.66211 z m 6.431641,0.794921 q 2.3125,-1.535644 2.3125,-2.240234 v -0.07227 q -2.240235,1.896973 -2.240235,2.023438 -0.07227,0.126465 -0.07227,0.289062 z m 5.419922,-1.878906 q 0,0.686524 -0.578125,7.6601564 v 0.9394531 q 0.307129,0 0.578125,0.2890625 0.180664,0 0.361328,-0.578125 -0.216797,-2.7099609 -0.289063,-8.310547 z m 4.841796,0.939453 h 0.07227 q 0.108399,0 0.216797,0.216797 v 0.216797 q -2.890625,2.673828 -3.324219,2.673828 -0.108398,0 -0.216797,-0.216797 v -0.144531 q 2.023438,-1.662109 3.251953,-2.746094 z m -11.273437,2.746094 h 0.07227 l 2.3125,-1.662109 0.289062,-0.650391 h -0.07227 l -2.095703,1.589844 q 0,0.180664 -0.505859,0.722656 z m 15.681641,1.5898438 q -0.07227,0.7226562 -0.07227,1.0839844 v 0.3613281 q 3.7578125,-3.7578123 4.3359375,-3.7578123 0.1625976,0 0.2167968,0.361328 -1.2827148,0.921387 -4.3359373,3.9746093 -0.216797,0 -0.216797,0.1445312 l 0.07227,0.3613282 q 3.6855465,-3.3242187 4.1191402,-3.3242187 h 0.072266 q 0.1445313,0.01807 0.1445313,0.1445312 v 0.2167968 q -0.4697266,0.6684571 -1.0839844,0.8671875 -1.4995117,1.2104493 -3.1796877,2.890625 v 0.2890625 q 0.01807,0.1445313 0.144531,0.1445313 2.384766,-2.1860352 3.8300786,-3.0351563 h 0.2167969 q 0.1445312,0.018066 0.1445312,0.1445313 v 0.2167969 q -0.2529297,0.4697265 -1.2285156,0.8671875 l -2.6738281,2.2402343 q 0.25293,0.5058594 0.361328,0.5058594 3.2700196,-2.7460937 3.8300782,-2.7460937 h 0.072266 q 0.1083985,0 0.2167969,0.2890625 -0.758789,1.0839843 -1.5898437,1.0839843 -2.240234,1.7885743 -2.240234,1.8789063 l 0.433593,0.2890625 Q -7.9397202,-6.4316406 -7.4338608,-6.4858398 -8.156517,-8.2021484 -8.156517,-9.4487305 V -10.60498 q 0,-0.397461 0.1445312,-2.384766 z m -23.992188,-2.6738278 v 0.216797 q 0,2.2221675 2.3125,3.5410152 l 0.505859,0.072266 h 0.939454 q 0.541992,0 0.578125,-0.2167969 -1.40918,0 -3.324219,-1.5175781 -0.939453,-1.2285158 -0.939453,-2.0957028 z m 9.177734,1.228515 h 0.07227 q 0.505859,-0.307129 0.505859,-0.433593 h -0.07227 q -0.50586,0.307128 -0.50586,0.433593 z m -6.503906,5.4921878 h 0.867188 q 0.07227,0 1.300781,-1.5175781 h -0.07227 q -0.975586,0 -1.228515,0.6503906 -0.108399,0 -0.867188,0.8671875 z m 1.445313,0 v 0.072266 q 0.523926,0.072266 0.578125,0.072266 0.361328,-0.5961914 1.445312,-1.5898437 l -0.361328,-0.072266 h -0.361328 q -0.541992,0.4516601 -1.300781,1.5175781 z m 2.529297,-1.3730469 q -1.517579,1.4272461 -1.517579,1.5898438 v 0.072266 q 0.216797,0 0.722657,0.2890625 0,-0.2709961 1.517578,-1.8066406 -0.180664,0 -0.722656,-0.1445313 z m -6.576172,2.5292969 h 0.07227 q 0.397461,-0.5239258 1.878907,-1.0839844 0.758789,-0.668457 1.228515,-1.3007812 -1.15625,0.2167968 -2.673828,1.6621093 -0.505859,0.6503907 -0.505859,0.7226563 z m 7.660156,-2.1679688 q -1.336914,1.2646485 -1.589844,1.8066407 l 0.216797,0.1445312 h 0.07227 q 0.831054,-0.578125 1.951172,-1.8066406 -0.469727,-0.1445313 -0.650391,-0.1445313 z m 9.394531,2.3125 q 0,0.090332 0.650391,0.6503907 1.463379,-0.578125 3.179687,-2.0957032 -0.505859,-0.6142578 -0.505859,-0.8671875 -3.035156,2.3125 -3.324219,2.3125 z m 12.3574221,-2.1679687 q -0.3613281,0.4697265 -2.0957031,1.5175781 -1.427246,1.1201172 -1.445313,1.2285156 0.144532,0 0.144532,0.2167969 h 0.07226 q 1.1562503,-1.0117187 3.6132816,-2.8183594 z m -20.5234371,0.2167969 q -0.523926,0.3432617 -1.66211,1.3730468 -0.415527,0.4335938 -0.578125,0.4335938 v 0.072266 q 0,0.1445313 0.433594,0.2890625 0.397461,-0.1083984 2.3125,-2.0957031 -0.234863,-0.072266 -0.505859,-0.072266 z m 0.867187,0.2890625 q -1.336914,1.336914 -2.384766,2.2402343 0.849122,0.8310547 0.867188,1.2285157 2.222168,-1.8247071 4.408203,-2.8183594 v -0.072266 q -0.361328,0 -1.589844,-0.2890625 -2.529297,2.3847656 -3.107422,2.3847656 -0.144531,0 -0.144531,-0.1445313 v -0.072266 q 1.264649,-0.8310547 2.673828,-2.1679687 h 0.07227 v -0.1445313 q -0.216797,0 -0.505859,-0.1445312 -0.144532,0.072266 -0.216797,0.072266 0,-0.072266 -0.07227,-0.072266 z m 20.5957032,0.072266 q 0,0.1445312 -0.1445312,0.1445312 h -0.072266 q -0.072266,0 -0.072266,-0.072266 -1.3730469,0.8671875 -3.6132817,2.6738281 h -0.07226 q 0.09033,0.1987305 1.2285155,0.9394532 0,-0.090332 1.15625,-1.0839844 h -0.072266 q -0.9033203,0.7949219 -1.3007812,0.7949219 -0.1083984,0 -0.2167969,-0.2167969 v -0.1445313 q 3.4868164,-2.5292968 3.8300781,-2.5292968 0.1445313,0.072266 0.2167969,0.072266 l 0.072266,-0.1445313 q -0.3613281,-0.072266 -0.9394531,-0.4335937 z m -7.2988282,0.4335937 q 0,0.1445313 -0.433594,0.578125 0.560059,0.9394532 2.384766,2.7460938 l 1.373047,1.80664061 h 0.144531 q 0,-0.19873047 0.5058595,-0.8671875 0,-0.10839844 -1.5898435,-1.37304691 0,-0.1264648 -1.734375,-1.9511718 0,-0.2709961 -0.650391,-0.9394532 z m 3.8300782,5.70898441 v 0.0722656 q 2.0776367,-1.04785156 4.9863281,-3.83007813 0.4697266,-0.3432617 0.7226563,-1.5898437 -2.0053711,1.5717773 -4.9140625,4.11914058 -0.3432617,0 -0.7949219,1.22851563 z M -22.754173,-4.534668 v 0.072266 q 1.535644,1.2104492 2.095703,2.5292968 0.25293,0.1083985 0.722656,1.37304691 h 0.07227 q 0,-0.32519532 0.433593,-1.80664061 -1.987304,-1.9331055 -2.818359,-2.2402344 -0.289062,0.072266 -0.505859,0.072266 z m 4.408203,2.9628907 h -0.216797 q -0.19873,0 -0.433594,-0.1445313 -0.216797,0.487793 -0.505859,1.95117188 3.378418,-3.75781248 3.902344,-3.75781248 l 0.289062,-0.2890625 q -0.07227,-0.2890625 -0.07227,-0.5058594 -0.487792,0.2529297 -2.818359,2.6738281 z m -16.332031,-2.4570313 v 0.072266 q 1.427246,0 2.167968,0.7226563 2.204102,1.0478515 2.962891,2.81835936 h 0.07227 q 0.144531,-0.65039066 0.144531,-0.93945316 v -0.1445312 q 0,-0.9394531 -2.384766,-2.4570313 -0.831054,-0.2167968 -1.734375,-0.2167968 h -0.578125 q -0.180664,0 -0.65039,0.1445312 z m 5.925781,3.39648438 q 0,-0.0722656 -0.07227,-0.0722656 l -0.216797,0.50585937 h 0.07227 q 2.149902,-1.93310543 5.058594,-3.17968753 h 0.144531 v -0.5058593 q -1.734375,0.7045898 -4.769531,3.17968746 -0.144532,0.0722656 -0.216797,0.0722656 z m 0.505859,2.31250002 q 0.45166,0.4335937 1.66211,0.4335937 h 0.144531 q 0.216797,0 0.216797,-0.6503906 -0.289063,-0.1445312 -0.794922,-0.1445312 -1.120117,0.090332 -1.228516,0.3613281 z"
         id="path351" />
      <path
         d="m 4.2912369,-15.48291 h 0.2890625 q 1.4453125,1.391113 2.0234375,3.107422 0.018066,0.415527 0.2167969,0.794922 0.2890625,0 0.2890625,0.144531 0,0.108398 -0.2167969,0.216797 l 0.5058594,1.3730466 q -0.5961915,0.6323242 -3.7578125,2.8183594 -0.7949219,0.8491211 -0.7949219,1.15625 v 0.1445312 q 0.6323242,2.5292969 2.3125,2.5292969 h 0.3613281 q 0.072266,0 0.578125,-0.1445313 h 0.072266 l 0.2890625,0.2167969 Q 6.3327408,-1.1020508 5.8810806,-1.1020508 4.5080338,-0.37939453 2.91819,0.92138672 2.7375259,1.2827148 2.340065,1.2827148 H 2.1955338 q -0.1445313,0 -0.1445313,-0.1445312 V 0.99365234 l 0.072266,-0.14453125 q -1.0117187,-0.5961914 -3.6132812,-3.03515629 -0.1083985,0 -0.2890625,-0.1445312 0.1445312,-0.9575195 0.1445312,-2.7460938 V -5.293457 Q -1.7790756,-8.6176758 -1.7790756,-8.9790039 V -10.20752 q 0,-1.228515 3.3964844,-3.324218 0.8852539,-0.95752 2.6738281,-1.951172 z m -4.98632815,5.130859 q 2.78222655,-2.276367 4.26367185,-3.685547 0.7407227,-0.505859 0.8671875,-0.505859 v -0.07227 H 4.2912369 q -2.2402344,1.228516 -2.2402344,1.878907 -2.45703125,1.80664 -2.74609375,2.3125 z M 2.8459244,-12.881348 H 2.91819 l 1.8066406,-1.373047 v -0.07226 H 4.652565 q -0.6865234,0.397461 -1.8066406,1.445312 z m 2.0957031,-1.083984 q -1.6621094,1.246582 -1.6621094,1.300781 v 0.07227 q 0.1445313,0 0.6503907,0.505859 0,-0.307129 1.5175781,-1.011719 v -0.07226 l -0.072266,-0.144531 q -1.1743165,0.722656 -1.4453125,0.722656 -0.1445313,0 -0.1445313,-0.144531 0.090332,-0.180664 1.3730469,-0.867188 v -0.144531 q 0,-0.108399 -0.2167969,-0.216797 z m -0.9394531,1.951172 v 0.07226 q 0,0.108399 0.2167969,0.216797 h 0.072266 q 1.4453125,-0.541992 1.4453125,-0.867187 -0.072266,-0.144531 -0.072266,-0.216797 h -0.072266 q -1.2104492,0.794922 -1.5898437,0.794922 z m -4.62500002,2.1679686 v 0.2890625 L -0.55056,-9.1958008 Q 0.20822906,-10.117188 2.340065,-12.01416 l 0.072266,-0.361328 H 2.340065 q -1.77050781,1.300781 -2.96289062,2.5292966 z M 4.4357681,-11.36377 q 0.4335938,0.812989 0.4335938,0.939454 1.3007812,-0.776856 1.3007812,-0.867188 h -0.072266 q -0.6503906,0.433594 -1.15625,0.433594 l -0.2167969,-0.289063 q 0.018066,-0.144531 0.1445313,-0.144531 h 0.1445312 q 0.072266,0 0.072266,0.07227 0.072266,0 0.9394531,-0.433594 -0.090332,-0.433594 -0.2167969,-0.433594 -1.1743164,0.722656 -1.3730469,0.722656 z m -1.3730468,-0.505859 -0.072266,0.144531 v 2.2402347 q 0,1.0478516 -0.1445312,2.1679688 v 0.072266 H 2.91819 q 0,-0.1445313 1.5175781,-1.734375 0,-1.5898441 -1.3730468,-2.8906251 z m -3.25195317,2.8183595 v 0.072266 Q 1.7438736,-10.243652 2.2677994,-10.85791 v -0.50586 h -0.072266 q -1.42724614,1.138184 -2.38476567,2.3125005 z M 5.0138931,-10.20752 q 0,-0.07226 -0.072266,-0.07226 v 0.07226 q 0.2167969,0.9755864 0.2167969,1.2285161 1.3730469,-0.9394531 1.3730469,-1.1562501 -0.2167969,-0.397461 -0.2167969,-0.650391 -1.2465821,0.578125 -1.3007813,0.578125 z m -5.49218747,1.8789067 v 0.3613281 h 0.0722656 q 2.22216795,-1.6621093 2.60156255,-1.6621093 0,0.072266 0.072266,0.072266 v -0.7226561 q -2.43896487,1.7885741 -2.74609377,1.9511717 z M -1.4177475,-9.8461914 v 0.7949219 q 0,0.3974609 0.1445313,3.6855468 h 0.072266 v -1.5898437 q 0,-0.072266 -0.072266,-0.2167969 0.072266,-0.1264648 0.072266,-0.2890625 v -0.2167969 q 0,-0.5961914 -0.1445313,-2.1679687 z m 0.93945313,2.4570312 v 0.578125 Q 1.2922134,-8.3286133 1.6174088,-8.3286133 l 0.072266,0.1445313 v 0.072266 q -1.69824221,1.3188477 -2.16796877,1.8789062 v 0.1445313 h 0.0722656 Q 1.76194,-7.9672852 2.0510025,-7.9672852 q 0.018066,0.1445313 0.1445313,0.1445313 0.072266,-1.0839844 0.072266,-1.5175781 -1.9511719,1.15625 -2.74609377,1.9511718 z M -0.55056,-5.1489258 q 2.1679688,-1.734375 2.6015625,-1.734375 h 0.072266 V -7.605957 Q -0.55056,-5.7631836 -0.55056,-5.2211914 Z m 0,0.578125 v 0.4335938 h 0.0722656 q 1.53564457,-1.3911133 2.38476567,-1.734375 0.1445312,0.072266 0.2167968,0.072266 V -6.5942383 H 2.0510025 Q 0.73215485,-5.7993164 -0.55056,-4.5708008 Z m 0.0722656,1.0117188 v 0.072266 q 0.0180664,0.1445312 0.14453125,0.1445312 1.12011718,-1.1201171 2.52929692,-1.9511718 -0.072266,-0.1264649 -0.072266,-0.3613282 -1.48144529,0.8671875 -2.60156247,2.0957032 z m 0.43359375,0.5058593 q 0,0.1083985 0.21679687,0.2167969 1.87890625,-1.5898437 2.24023435,-1.5898437 l 0.072266,0.1445312 v 0.1445313 q -0.9213868,0.5419922 -2.02343755,1.5898437 l 0.21679688,0.2890625 Q 1.3825455,-2.6918945 2.5568619,-3.7036133 h 0.072266 q 0.1445313,0.018066 0.1445313,0.1445313 v 0.072266 l -1.734375,1.5175781 0.2167968,0.1445313 h 0.072266 q 1.6440429,-1.5898438 1.8066406,-1.5898438 v -0.072266 Q 2.4123306,-4.3540039 2.340065,-4.8598633 1.6535416,-4.7875977 -0.04470062,-3.0532227 Z M -1.2732162,-4.0649414 q 0,0.2529297 -0.072266,0.6503906 v 0.072266 h 0.072266 l 0.072266,-0.3613281 v -0.3613281 z m 2.890625,2.5292969 v 0.072266 q 1.427246,-1.15625 2.0234375,-1.4453125 L 3.4240494,-3.1977539 q -0.3071289,0.054199 -1.8066406,1.6621094 z M -1.128685,-2.980957 -1.2009506,-2.4750977 Q 1.8342056,0.48779297 2.340065,0.48779297 v -0.0722656 l 0.1445313,-0.50585937 q -0.5058594,0 -3.5410157,-2.89062497 z m 3.1074219,1.6621093 v 0.1445313 h 0.072266 q 0.2167969,0 2.1679688,-1.3730469 h 0.072266 v -0.072266 q -0.072266,0 -0.2167969,-0.072266 -0.3251953,0 -2.0957031,1.3730468 z m 2.6015625,-1.2285156 q 0,0.2890625 -1.3730469,1.0839844 -0.5239258,0.50585937 -0.7226562,0.50585937 v 0.14453125 l 0.2890625,0.0722656 q 0.072266,-0.18066406 2.0957031,-1.73437504 -0.1625977,0 -0.2890625,-0.072266 z M 2.6291275,0.70458984 Q 4.4538345,-0.83105469 5.8810806,-1.4633789 L 6.0256119,-2.4750977 Q 2.8820572,-0.09033203 2.7013931,0.41552734 Z"
         id="path353" />
      <path
         d="m 17.895241,-14.109863 q 0.560058,0 1.878906,1.662109 1.15625,0.95752 1.15625,1.373047 v 0.07227 q -0.144531,0.289062 -0.216797,0.289062 0,0.07227 0.07227,0.07227 0.108398,6.4497068 0.578125,6.7207028 0.487793,0.2890625 0.867187,0.2890625 0.523926,-0.2890625 0.650391,-0.2890625 0.289062,0.1083985 0.289062,0.2167969 v 0.7949219 q 0,0.2348633 0.144532,1.0117187 -0.270996,0.2167969 -2.457032,1.15625004 -1.734375,1.17431641 -1.734375,1.58984375 0,0.37939451 -0.361328,0.57812501 h -0.07227 q -3.035157,-2.9448242 -3.035157,-4.4082031 -0.216796,0 -0.505859,-2.3847657 v -1.734375 q -0.307129,-2.4750976 -0.433594,-2.890625 0,-0.3613283 -0.144531,-0.3613283 l -0.361328,0.07227 v 2.2402342 q 0,4.4624024 0.433594,6.2871094 h 0.07226 q 0,-0.3613281 0.144532,-0.3613281 0.180664,0 0.289062,0.8671875 0.144531,0.018066 0.144531,0.1445312 v 0.21679689 l -0.144531,0.21679688 q 0.07227,0.12646484 0.07227,0.2890625 -1.300782,0.12646484 -3.46875,1.87890623 0,0.1445313 -0.144532,0.1445313 h -0.289062 q -0.09033,0 -0.433594,-0.65039066 -0.180664,0 -2.095703,-2.02343754 -0.1445312,0.0722657 -0.2167968,0.0722657 0,-0.14453127 -0.1445313,-0.14453127 0,-0.8671875 0.8671875,-1.8789062 0.2167969,-0.3793946 0.2167969,-1.734375 v -2.9628907 q 0,-1.5898437 -1.3007813,-2.2402343 v -0.072266 q 0.1625977,-0.6503903 0.3613282,-0.7949223 l -0.072266,-0.361328 q 0,-0.560058 3.0351565,-2.384765 0,-0.126465 0.433594,-0.289063 0.09033,0 0.65039,0.650391 1.300781,1.029785 1.300781,1.228515 1.15625,-0.831054 3.541016,-1.878906 0,-0.126465 0.433594,-0.289062 z m -0.07227,0.794922 q -0.234863,0.252929 -2.890625,1.517578 v 0.07227 h 0.578125 q 2.276367,-1.517578 2.529297,-1.517578 v -0.07226 z m 0.361328,0.144531 q 0,0.325195 -1.517578,1.011719 -0.560058,0.505859 -0.722656,0.505859 v 0.07227 q 0.19873,0.361328 0.289062,0.361328 1.535645,-1.011719 2.240235,-1.66211 z m -8.5273435,2.023437 0.3613285,0.289063 q 0.469726,-0.397461 2.384765,-1.589844 l -0.505859,-0.361328 q -0.849121,0.45166 -2.2402345,1.662109 z m 8.9609375,-1.445312 q -2.041504,1.662109 -2.3125,1.662109 0.07227,0.289063 0.07227,0.50586 l 2.673828,-1.66211 0.07227,0.144531 v 0.144532 q -0.343261,0.361328 -2.601562,1.662109 l -0.144531,0.216797 v 0.7949218 h 0.07227 q 1.644043,-0.8852538 2.81836,-1.8789058 h 0.07227 q 0.144532,0.01807 0.144532,0.144531 v 0.07226 q -1.969239,1.625977 -3.107422,2.023438 v 0.8671875 h 0.144531 Q 18.744362,-9.25 19.701881,-10.135254 h 0.144532 q 0.144531,0.01807 0.144531,0.1445313 -1.011719,1.1020508 -3.541016,2.4570313 h -0.07227 v 0.9394531 q 0.01807,0.1445313 0.144531,0.1445313 2.926758,-2.3847657 3.107422,-2.3847657 h 0.07227 q 0.144532,0.018066 0.144532,0.1445313 0,0.090332 -3.396485,2.6738281 v 0.2167969 h 0.07227 q 2.384766,-1.8789063 2.962891,-1.8789063 l 0.144531,0.2167969 q 0,0.3793946 -0.216797,0.4335938 h -0.07227 q -0.144531,0 -0.144531,-0.2167969 h -0.07227 q -1.210449,0.7768555 -2.601562,1.8066406 l 0.216797,1.5898438 q 2.438965,-2.0234375 2.96289,-2.0234375 l 0.07227,0.1445312 v 0.072266 q 0,0.1264649 -0.722656,0.4335938 -0.849121,0.5239258 -2.167969,1.734375 v 0.2890625 l 0.07227,0.3613281 q 2.890625,-2.6015625 3.179687,-2.6015625 l 0.07227,0.1445313 v 0.072266 q -1.336914,1.1201172 -3.179688,2.8183594 v 0.1445312 q 0,0.1083985 0.216797,0.2167969 1.120117,-0.8310547 3.107422,-2.4570313 -0.216797,-2.6918945 -0.289062,-5.7089848 -0.07227,0 -0.07227,-0.144531 h 0.07227 l -0.07227,-0.144531 q 0.07227,-0.397461 0.07227,-0.650391 z m -8.455078,2.023437 q 0.07227,0.126465 0.07227,0.289063 h 0.144531 q 1.86084,-1.065918 2.240234,-1.445313 h 0.07227 q 0.144531,0.01807 0.144531,0.144532 v 0.07226 q -0.415527,0.469727 -2.457031,1.589844 0.144531,0.7045898 0.144531,0.7949218 h 0.07227 q 1.318847,-0.8129882 2.167968,-1.5175778 h 0.07227 q 0.144531,0.01807 0.144531,0.144531 -0.957519,0.9575195 -2.457031,1.8066406 0.07227,0 0.07227,0.7949219 l 2.601562,-1.9511719 q 0.144531,0.018066 0.144531,0.1445312 v 0.072266 q -0.270996,0.3613281 -2.673828,2.0957031 v 0.5058594 q 2.095703,-1.8066407 2.384766,-1.8066407 l 0.07227,0.1445313 v 0.072266 l -2.457032,2.0234375 v 0.578125 h 0.07227 q 0.632324,-0.3071289 2.818359,-2.6015625 l -0.07226,-0.1445312 v -1.951172 q 0,-0.144531 -0.144532,-0.722656 0.07227,-0.144531 0.07227,-0.216797 -0.126465,0 -0.722656,-0.505859 -1.282715,0.632324 -2.529297,1.589843 z m 4.046875,-0.289062 v 0.216797 l 0.361328,-0.07227 h 0.144531 q 0.45166,0.07227 0.650391,2.9628907 0.07227,0 0.07227,0.2167969 0.07226,2.4570312 0.07226,2.7460937 0.596192,2.8725586 1.228516,3.6132813 1.427246,1.68017577 1.734375,1.87890624 0.108398,0 0.433594,-0.43359375 V 0.12646484 Q 18.473366,0.48779297 18.4011,0.48779297 18.075905,0.34326172 18.039772,0.19873047 v -0.21679688 l 0.144531,-0.21679687 q -0.957519,-0.46972656 -1.15625,-0.93945312 -0.939453,0 -1.373047,-6.2871094 v -2.9628902 l -0.361328,0.07226 -0.07226,-0.144531 v -0.07227 q 0,-0.162597 0.361328,-0.216797 -0.07227,-0.144531 -0.07227,-0.216796 h -0.07226 q -0.650391,0 -1.228516,0.144531 z m -5.3476563,0.144531 q -0.2890625,0.596191 -0.2890625,0.650391 1.3007812,0.7407224 1.3007812,2.6015622 0,4.9140625 -0.4335937,4.9140625 -0.578125,0.6503906 -0.578125,0.7226563 v 0.2890625 q 0.1264648,0 0.4335937,-0.578125 0.6503906,-0.2529297 0.6503906,-0.7226563 v -4.4082031 q 0,-2.3125 -0.3613281,-2.3125 -0.2167969,0 -0.2167969,-0.1445313 l 0.2890625,-0.2890625 -0.1445312,-0.072265 q 0,0.144531 -0.1445313,0.144531 h -0.072266 q -0.1445312,0 -0.1445312,-0.144531 0,-0.03613 0.2890625,-0.361328 -0.3071289,-0.289063 -0.578125,-0.289063 z m 4.5527343,2.6738282 q -1.138184,1.3549805 -2.601562,2.3847656 h -0.144532 v 0.7226563 q 1.391114,-1.1743164 2.529297,-2.2402344 h 0.07227 q 0.144531,0.018066 0.144531,0.1445313 -1.644043,1.734375 -2.746094,2.4570312 v 0.578125 q 2.3667,-2.3125 2.673828,-2.3125 l 0.07227,0.1445313 v 0.072266 l -2.818359,2.6015625 0.07226,0.1445312 v 0.2167969 l -0.07226,0.1445313 h 0.07226 q 2.222168,-2.4750977 2.890625,-2.7460938 -0.07226,-0.7226562 -0.07226,-1.0839844 v -0.8671875 l 0.07226,-0.3613281 z m 6.070313,1.5898438 q 0.144531,0.018066 0.144531,0.1445312 0,0.1445313 -1.589844,1.0117188 -1.138184,1.1020508 -1.15625,1.15625 -0.144531,0 -0.144531,-0.2167969 0.975586,-1.4272461 2.746094,-2.0957031 z m -9.25,4.625 h 0.07226 q 0.849121,-0.5239258 3.251953,-2.890625 V -5.293457 Q 12.42112,-4.625 10.235085,-1.8969727 Z m 0.216796,0.2167968 v 0.072266 q 0.108399,0 0.289063,0.1445312 2.547363,-2.4389648 2.890625,-2.4570312 v -0.4335938 q -2.872559,2.6738281 -3.179688,2.6738281 z m 7.009766,-0.1445312 q 0,0.1083984 0.433594,0.4335937 1.065918,-0.7045898 2.818359,-2.0957031 0.144531,0.018066 0.144531,0.1445313 v 0.072266 q -1.373046,1.3007812 -2.673828,2.0234375 v 0.072266 q 0,0.16259767 0.650391,0.36132814 l 1.15625,-1.08398434 q 0.144531,0.018066 0.144531,0.1445312 v 0.072266 l -0.07226,0.1445313 h 0.07226 q 0.07227,0 1.445313,-1.4453125 h 0.07227 v -0.1445313 q -0.596191,0 -1.300781,-1.0117187 z m -6.431641,0.578125 q 0.325196,0.28906249 0.361329,0.28906249 2.077636,-1.80664059 2.3125,-1.80664059 V -2.980957 l -0.07227,-0.5058594 h -0.07227 q -1.029785,0.8129883 -2.529297,2.3125 z m 9.394532,0.36132812 q 0.90332,-0.54199222 2.529297,-1.22851562 v -0.072266 q -0.144532,-0.578125 -0.144532,-0.8671875 h -0.07227 q -1.535645,1.4995117 -2.3125,2.16796872 z m -8.816407,0.0722656 q 0,0.10839844 0.216797,0.21679688 0.126465,-0.0722656 0.289063,-0.0722656 0,0.0722656 0.07226,0.0722656 Q 12.710182,-1.0478516 13.920631,-1.824707 13.7761,-2.2041016 13.7761,-2.402832 11.987526,-0.99365234 11.608131,-0.74072266 Z M 9.2233658,-1.4633789 9.0788345,-1.246582 q 1.9150395,2.09570309 2.0957035,2.09570309 0.07226,0 0.289062,-0.36132812 L 11.391335,0.34326172 V 0.27099609 L 11.4636,0.12646484 Q 9.5846939,-1.4633789 9.2233658,-1.4633789 Z m 3.9023442,0.50585937 v 0.0722656 h 0.144531 l 0.65039,-0.50585939 h -0.07226 q -0.596192,0.43359377 -0.722656,0.43359377 z M 12.113991,0.70458984 11.752663,0.48779297 Q 11.4636,1.15625 11.4636,1.2827148 v 0.072266 q 2.3125,-1.95117191 3.396485,-1.95117191 v -0.0722656 l -0.433594,-0.14453125 q -1.354981,0.75878906 -2.3125,1.51757812 z m 7.154297,-0.72265625 v 0.07226563 q 0.505859,-0.34326172 0.505859,-0.43359375 -0.505859,0.25292969 -0.505859,0.36132812 z"
         id="path355" />
      <path
         d="m 35.780983,-15.013184 h 0.433594 q 0.234863,0 0.361328,0.722657 0.433594,0.578125 0.433594,0.794922 -0.144532,3.5410152 -0.289063,4.2636714 0.343262,2.3666992 0.505859,5.4199219 0.216797,0 0.216797,0.1445312 l -0.144531,0.2167969 v 0.2167969 q 0.397461,0.2890625 1.373047,0.6503906 v 0.2890625 Q 36.142311,0.07226562 34.84153,0.45166016 h -0.216797 q -0.758789,0 -1.083984,-0.79492188 -0.722657,-1.15624998 -0.722657,-1.30078128 -0.812988,0.4335938 -2.240234,1.44531253 -1.752441,0.8671875 -2.095703,0.8671875 H 28.120827 Q 27.307838,0 26.675514,-1.065918 25.808327,-2.0415039 25.808327,-3.5952148 v -2.8183594 q 0,-1.065918 0.07227,-2.0234375 -0.07227,-0.397461 -0.07227,-1.4453125 0,-0.1264648 0.07227,-0.8671878 -0.343261,-0.379394 -0.867187,-0.505859 -0.289063,0.144531 -0.50586,0.144531 l -0.07227,-0.144531 v -0.361328 q 0,-1.102051 1.15625,-1.517578 2.475098,-1.373047 2.818359,-1.373047 0.397461,0 1.878906,1.517578 0.07227,0.487793 0.07227,0.794922 v 1.373047 l 0.289063,5.0585934 q -0.07227,0.3793945 -0.07227,0.8671875 v 0.1445313 q 0,1.1381835 0.289062,1.3730468 0.596192,0 1.300782,-0.2890625 0,-0.054199 -0.07227,-0.4335937 0,-0.6865235 0.07227,-2.8183594 0,-0.2167969 -0.144532,-1.9511719 h 0.07227 l -0.07227,-0.1445312 v -1.5175783 q 0,-0.831055 -0.361328,-0.939453 h -0.07227 l -0.361328,0.07227 -0.07227,-0.144532 q 0,-1.463379 3.035156,-2.673828 0.632324,-0.45166 1.589844,-0.794922 z m -2.601563,2.746094 0.07227,0.433594 q 2.601563,-1.915039 2.601563,-2.3125 h -0.07227 q -0.541992,0 -2.601563,1.878906 z m 2.81836,-1.517578 q 0,0.09033 -2.673828,2.3125 0,0.162598 0.07227,0.289063 -0.07227,0.144531 -0.07227,0.216796 h 0.07227 q 1.300782,-1.300781 2.746094,-2.3125 l 0.144531,0.07227 v -0.216797 q -0.180664,-0.361328 -0.289062,-0.361328 z m -9.900391,1.373047 0.361328,0.07227 q 1.535645,-1.083985 1.806641,-1.083985 h 0.144531 v 0.216797 q -0.325195,0 -1.734375,1.083984 l 0.216797,0.144532 q 1.481445,-1.300782 1.734375,-1.300782 0,-0.09033 -0.433594,-0.361328 -2.095703,1.15625 -2.095703,1.228516 z m 6.576172,-0.289063 v 0.07227 l 0.361328,0.07227 q 0.867188,-0.722657 1.011719,-0.722657 v -0.07226 h -0.07227 q -1.210449,0.65039 -1.300781,0.65039 z m -3.974609,-0.578125 q 0,0.307129 -1.373047,1.228516 0,0.0542 -0.361328,0.289063 0.07227,0.126464 0.07227,0.289062 0.487793,-0.415527 2.023438,-1.517578 -0.03613,0 -0.361328,-0.289063 z m 4.625,2.601563 q 0.07227,0.270996 0.07227,0.578125 l 0.216797,-0.144531 q 0.144531,0.07227 0.216797,0.07227 2.11377,-2.095703 2.384766,-2.095703 v -0.216797 l 0.07227,-0.505859 h -0.07227 q -1.102051,0.758789 -2.81836,2.3125 z m -6.214844,-0.578125 v 0.433594 q 1.788574,-1.481446 2.3125,-1.589844 l 0.07227,0.144531 q -1.481446,0.95752 -2.384766,1.878906 v 0.289063 h 0.07227 q 1.065918,-0.993652 2.384765,-1.951172 v -0.433594 q 0,-0.108398 -0.289062,-0.289062 z m 4.697266,-0.794922 h -0.289063 l -0.07227,0.361328 h 0.433594 q 0.379395,0 0.433594,1.8066408 0,0.072266 -0.07227,0.072266 l 0.07227,0.5058594 v 0.072266 q 0,1.15625 0.144531,2.3125 -0.07227,1.6079102 -0.07227,3.0351563 v 0.072266 q 0.289062,-0.2890625 0.505859,-0.2890625 -0.270996,-7.9492188 -0.578125,-7.9492188 -0.144531,0 -0.144531,-0.07227 z m 1.662109,2.3125 q 0,-0.072266 -0.07227,-0.072266 v 0.1445313 q 0,0.270996 0.07227,1.8066406 2.493164,-2.5834963 2.673828,-3.1796873 0,0.03613 -2.384766,2.3847654 h -0.07227 q -0.144531,0 -0.144531,-0.1445312 2.601562,-2.4931642 2.601562,-2.8183592 l 0.07227,-0.433594 q -2.366699,2.3125 -2.746094,2.3125 z m -8.744141,-2.240234 v 0.578125 l 0.144532,-0.07227 h 0.144531 q 0.270996,0 0.939453,0.289063 l 0.144531,-0.216797 q -0.144531,-0.433594 -0.578125,-0.433594 h -0.578125 z m 2.384766,2.5292965 v 0.072266 h 0.07227 l 2.384765,-1.8789062 v -0.433594 q -2.457031,1.7343752 -2.457031,2.2402345 z m -1.083984,-1.5898435 v 0.07226 q 0.07226,0.144532 0.07226,0.216797 h 0.07227 v -0.216797 z m 1.083984,2.1679685 v 0.3613282 l 2.457031,-1.8066407 v -0.578125 q -2.005371,1.4814453 -2.457031,2.0234375 z m -1.011719,-1.5898435 v 3.9746092 q 0,0.758789 -0.07226,1.5898437 l 0.144531,2.4570313 h 0.07227 q 0,-0.1083985 0.07227,-2.6015625 l -0.07227,-0.2890625 q 0.07227,-0.1264649 0.07227,-0.3613282 v -0.1445312 q 0,-0.1625977 -0.07227,-0.2890625 0,-0.072266 0.07227,-0.072266 l -0.144531,-4.2636717 z m 7.371094,3.035156 v 0.5058594 q 1.373047,-1.9150391 2.601562,-2.7460937 l -0.07227,-0.1445313 0.07227,-0.5058594 z m -6.359375,-0.6503906 v 0.4335938 q 0.975586,-0.9033204 2.529297,-2.0234375 v -0.3613277 h -0.07227 q -2.348633,1.7524409 -2.457031,1.9511714 z m 0,0.8671875 v 0.2890625 q 1.120117,-1.0478516 2.529297,-2.0957031 v -0.2890625 q -1.174317,0.6865234 -2.529297,2.0957031 z m 6.359375,0.7226563 q 0.07227,0.090332 0.07227,0.5058593 0.07227,0 2.529296,-2.6738281 v -0.2167969 l -0.07227,-0.3613281 q 0.07227,0 0.07227,-0.072266 h -0.07227 q -0.95752,0.7045898 -2.529297,2.8183594 z m -6.359375,0 v 0.2890625 h 0.07227 q 2.095703,-2.0957032 2.529296,-2.0957032 v -0.3613281 h -0.07227 q -0.993652,0.5961914 -2.529297,2.1679688 z m 6.503906,0.8671875 v 0.2167968 q 1.481446,-1.5537109 2.529297,-2.4570312 v -0.3613281 h -0.07227 q -0.108398,0.036133 -2.457031,2.6015625 z m -6.576172,0.3613281 q 2.655762,-2.3666992 2.673828,-2.4570313 v -0.3613281 q -0.794921,0.5058594 -2.457031,2.1679688 -0.126465,0 -0.216797,0.6503906 z m 6.576172,0.5058594 v 0.2890625 q 0,0.1625976 0.07227,0.2890625 -0.632324,1.0478515 -1.951172,1.734375 -0.09033,0 -0.722656,0.7226562 h 0.07227 q 1.228516,-0.6142578 2.3125,-1.5898437 h 0.144532 q 0.216796,0 0.216796,0.2890625 1.282715,-1.6982422 2.457032,-2.7460938 v -0.4335937 h -0.07227 q -0.812988,0.7949218 -2.384766,2.6738281 -0.144531,0 -0.144531,-0.1445313 v -0.072266 q 1.463379,-1.7524414 2.529297,-2.890625 V -7.425293 h -0.07227 q -2.457031,2.1679688 -2.457031,2.6738282 z m -6.576172,0.3613281 h 0.07227 q 0.469727,-0.8310547 2.601562,-2.5292969 v -0.3613281 q -2.673828,2.2763672 -2.673828,2.6015625 z m -0.07227,0.9394531 q 1.481445,-1.644043 2.746093,-2.6738281 v -0.4335938 q -2.746093,2.2041016 -2.746093,3.0351563 z m 0,0.5058594 v 0.072266 q 2.131836,-2.6015625 2.818359,-2.6015625 v -0.2890625 q -1.427246,0.9213867 -2.818359,2.8183594 z m 6.792968,0.6503906 h 0.07227 q 2.457031,-2.4389648 2.457031,-2.6015625 l -0.07227,-0.5058594 q -2.457032,2.4570313 -2.457032,3.1074219 z m -6.792968,-0.072266 v 0.072266 q 0,0.1083984 0.216797,0.2167969 0.108398,-0.036133 2.529296,-2.3847656 h 0.144532 q -0.07227,-0.2709961 -0.07227,-0.7949219 -1.481445,0.9033203 -2.818359,2.890625 z m 6.9375,0.2890625 0.07227,0.5058594 h 0.144532 q 0,-0.3251954 0.65039,-0.578125 0,-0.1445313 1.589844,-1.8066407 v -0.4335937 h -0.07227 q -2.2583,2.3125 -2.384765,2.3125 z m -6.576172,0.2890625 q 0.19873,0.3613281 0.289062,0.3613281 0,-0.3613281 2.3125,-2.5292969 -0.07227,-0.1264648 -0.07227,-0.2890625 z m 0.433594,0.578125 0.144531,0.072266 q 1.86084,-1.9511719 2.095703,-1.9511719 v -0.4335937 h -0.07227 q -1.698242,1.3911133 -2.167968,2.3125 z m 6.43164,0 q 0.25293,0.65039061 0.722656,0.65039061 h 0.07227 l -0.07227,-0.14453125 v -0.0722656 q 1.391114,-1.51757813 1.589844,-1.51757813 l -0.07227,-0.3613281 h -0.07227 q -0.90332,0.7949219 -1.806641,1.87890623 -0.144531,0 -0.144531,-0.14453125 v -0.0722656 q 0,-0.0722657 2.023438,-2.16796876 v -0.3613281 h -0.07227 q -0.07227,0 -2.167969,2.3125 z m -6.070312,0.28906248 v 0.0722656 q 0,0.10839843 0.216797,0.21679687 0.252929,-0.43359378 1.878906,-1.95117188 -0.07227,-0.1445312 -0.07227,-0.2167969 h -0.144531 q -1.246582,1.0297852 -1.878906,1.87890628 z m 2.3125,-1.51757808 q -1.427246,1.3188476 -1.878907,1.95117183 h 0.07227 q 0.650391,-0.14453125 1.734375,-1.44531253 0.108399,0 0.433594,-0.4335937 z m 0.578125,0.2167968 -0.867188,0.9394532 h 0.07227 q 0.415527,-0.3071289 0.867187,-0.9394532 z m 5.636718,0.072266 q -1.589843,1.49951168 -1.589843,1.58984371 h 0.144531 q 0.632324,0 1.878906,-1.44531251 z m -3.541015,0.4335937 q 0,0.2348633 0.722656,1.30078126 0,0.50585937 0.794922,0.578125 H 34.84153 L 35.202858,0.09033203 V 0.01806641 q -1.336914,0 -1.806641,-1.66210941 0,-0.2167968 -0.144531,-0.2167968 -0.144531,0.018066 -0.144531,0.1445312 z m -4.480469,2.09570313 h 0.07227 q 0.162597,0 2.601562,-1.30078125 v -0.0722656 h -0.07226 z m -1.228516,-0.8671875 v 0.0722656 q 0,0.090332 0.794922,0.79492187 l 0.07227,-0.14453125 z"
         id="path357" />
    </g>
  </g>
  <g
     id="layer1"
     transform="translate(-53.406,-129.947)">
    <g
       aria-label="lll"
       transform="rotate(-90,124.1765,40.7705)"
       id="text20"
       style="font-size:36px;font-family:SketchGothicSchool, 'Sketch Gothic School';letter-spacing:0.023em;fill:#ffffff">
      <path
         d="M 6.5390625,-20.496094 6.75,-20.214844 v 0.210938 q -0.5625,0.544922 -0.5625,5.414062 0.070312,2.074219 0.070312,2.742188 -0.070312,3.0058591 -0.070312,3.5156247 0.1933594,4.5703125 0.4921875,4.5703125 0.703125,0.5625 2.0390625,0.84375 l 0.140625,0.3515625 Q 8.4902344,-2.0917969 8.2265625,-1.3710937 7.6992187,-1.1425781 4.9921875,1.7226562 H 4.78125 Q 4.5703125,1.265625 3.8671875,1.0195312 3.1464844,0.43945313 1.1953125,-1.4414062 1.546875,-2.4609375 1.546875,-5.8710937 1.40625,-8.3847656 1.40625,-8.6835938 v -2.8828122 q 0,-1.96875 -0.3515625,-4.5 0.4746094,-1.634766 1.3359375,-1.96875 3.7265625,-2.460938 4.1484375,-2.460938 z m -4.1484375,4.148438 q 0.070312,0.123047 0.070312,0.28125 2.4082031,-2.53125 2.7421875,-2.53125 l 0.070312,0.140625 v 0.07031 q -1.7226562,1.582032 -2.8125,2.882813 v 0.28125 H 2.53125 q 3.09375,-2.882813 3.09375,-2.953125 0.070312,-0.720703 0.070312,-1.125 -1.4414063,0.966797 -3.3046875,2.953125 z m 0.703125,-1.335938 -0.703125,0.5625 v 0.28125 q 0.6503906,-0.773437 0.84375,-0.773437 v -0.07031 z m -0.6328125,3.023438 v 0.5625 q 1.7929687,-1.863282 2.8828125,-2.742188 0.140625,0.01758 0.140625,0.140625 v 0.07031 q -2.9355469,2.794922 -2.953125,3.023437 v 0.07031 h 0.070312 q 1.3007813,-1.59961 2.6015625,-2.53125 h 0.070312 l 0.070312,0.140625 v 0.07031 q -2.3554687,2.16211 -2.8125,2.8125 v 0.492188 q 2.5664062,-3.023438 3.0234375,-3.023438 v -1.898437 L 5.625,-17.613281 h -0.070312 q -2.1445312,1.898437 -3.09375,2.953125 z m -0.84375,-1.898438 q -0.2109375,0.421875 -0.2109375,0.5625 0.3515625,3.111328 0.3515625,3.445313 -0.070312,2.179687 -0.070312,2.8828122 0.2109375,5.0976563 0.2109375,5.4140626 -0.140625,1.1777343 -0.140625,1.6874999 v 0.070312 H 1.828125 Q 2.109375,-3.5507813 2.109375,-3.8320313 1.8984375,-7.4355469 1.7578125,-16.066406 L 1.6875,-16.558594 Z m 0.9140625,4.570313 v 0.140625 l 2.953125,-3.234375 h -0.070312 q -2.1621094,1.880859 -2.8828125,3.09375 z m 0.070312,0.632812 h 0.070312 q 0.4921875,-0.597656 2.8125,-3.023437 v -0.210938 q -1.8105469,1.88086 -2.8828125,3.234375 z m 0,0.492188 v 4.5703123 h 0.140625 Q 4.1484375,-7.875 5.1328125,-8.7539063 h 0.070312 q 0.140625,0.017578 0.140625,0.140625 v 0.070312 q -1.6523437,1.5468751 -2.671875,2.8828126 0.070312,0.1230468 0.070312,0.3515625 H 2.8125 q 0,-0.1757813 2.671875,-3.0234376 v -1.265625 q -0.1933594,0.017578 -2.4609375,2.3906251 H 2.8828125 L 2.8125,-7.3476562 v -0.070312 q 1.7929687,-1.9335938 2.7421875,-2.6718753 v -1.125 l -2.390625,2.8125002 q -0.140625,0 -0.140625,-0.140625 v -0.070312 q 0.8085938,-1.0898437 2.53125,-3.1640627 v -0.210937 q -0.9140625,0.808593 -2.671875,3.0234372 H 2.8125 q -0.140625,0 -0.140625,-0.140625 Q 3.375,-10.125 5.484375,-12.480469 h -0.070312 l -2.390625,2.6015627 h -0.140625 q -0.140625,0 -0.140625,-0.1406247 l 2.7421875,-3.023438 h -0.070312 q -2.4609375,2.513672 -2.4609375,2.742188 h -0.28125 v -0.210938 q 0.087891,-0.193359 2.8125,-3.09375 v -0.28125 q -2.0390625,2.039063 -2.8828125,3.023438 z m 0.140625,6.1874998 h 0.140625 q 0,-0.1230469 1.96875,-2.3203125 0.140625,0.017578 0.140625,0.140625 v 0.140625 Q 2.8125,-4.2363281 2.8125,-4.0429687 l -0.070312,0.3515624 Q 3.9375,-5.0273437 5.34375,-6.4335937 q 0.140625,0 0.140625,0.2109375 l -2.53125,2.8124999 Q 2.671875,-3.0585938 2.53125,-2.4960938 4.6933594,-5.0097656 5.5546875,-5.6601562 H 5.625 v -0.070312 q 0,-0.703125 -0.070312,-2.109375 -2.7070312,2.6542968 -2.8125,3.1640625 z M 2.53125,-1.9335937 v 0.070312 h 0.070312 q 1.8808594,-2.1621094 2.8125,-3.09375 H 5.484375 Q 5.625,-4.9394531 5.625,-4.8164062 v 0.070312 q -1.6875,1.7578124 -2.7421875,3.09375 0.017578,0.140625 0.140625,0.140625 l 2.671875,-2.8828125 v -0.140625 L 5.625,-5.3789062 q -2.4609375,2.5312499 -3.09375,3.4453125 z m 0.7734375,0.6328125 v 0.070312 q 0.1230469,0 1.1953125,0.70312495 1.828125,-1.37109375 1.828125,-1.89843755 0.1054687,0 0.421875,-0.421875 0,-0.140625 -0.140625,-0.140625 L 4.5,-0.80859375 h -0.070312 q -0.140625,0 -0.140625,-0.140625 l 1.96875,-2.25000005 q 0,-0.140625 -0.140625,-0.140625 h -0.140625 q 0,0.1582032 -1.8984375,2.1796876 h -0.070312 q -0.140625,0 -0.140625,-0.140625 L 5.90625,-3.6914063 q -0.070312,-0.1230468 -0.070312,-0.28125 H 5.765625 Q 4.6582031,-2.8652344 3.3046875,-1.3007812 Z M 7.03125,-2.6367188 q -0.017578,0.2988282 -2.109375,2.25000005 h -0.070312 q 0,0.10546875 0.28125,0.2109375 0.140625,-0.0878906 1.6875,-1.89843755 h 0.070312 q 0.140625,0.017578 0.140625,0.1406251 l -0.140625,0.2109375 v 0.070312 q 0.84375,-0.6855469 0.84375,-0.7734376 v -0.070312 q -0.2109375,0 -0.703125,-0.140625 z m 0.421875,1.3359376 v 0.070312 H 7.59375 l 0.421875,-0.421875 H 7.9453125 Q 7.5761719,-1.3007812 7.453125,-1.3007812 Z m -5.8359375,-0.28125 v 0.070312 Q 3.9375,0.87890625 4.7109375,1.0898437 4.8515625,0.6328125 4.8515625,0.45703125 3.0585938,-0.50976562 1.828125,-1.5117187 q -0.070312,0 -0.2109375,-0.070312 z m 5.0625,0.98437495 q -1.1074219,1.265625 -1.546875,1.265625 0,0.10546875 -0.140625,0.63281245 1.6699219,-1.82812495 1.828125,-1.82812495 v -0.0703125 z"
         id="path360" />
      <path
         d="m 16.578,-20.496094 0.210938,0.28125 v 0.210938 q -0.5625,0.544922 -0.5625,5.414062 0.07031,2.074219 0.07031,2.742188 -0.07031,3.0058591 -0.07031,3.5156247 0.193359,4.5703125 0.492187,4.5703125 0.703125,0.5625 2.039063,0.84375 l 0.140625,0.3515625 q -0.369141,0.4746094 -0.632813,1.1953126 -0.527344,0.2285156 -3.234375,3.0937499 H 14.820188 Q 14.60925,1.265625 13.906125,1.0195312 13.185422,0.43945313 11.23425,-1.4414062 q 0.351563,-1.0195313 0.351563,-4.4296875 -0.140625,-2.5136719 -0.140625,-2.8125001 v -2.8828122 q 0,-1.96875 -0.351563,-4.5 0.474609,-1.634766 1.335938,-1.96875 3.726562,-2.460938 4.148437,-2.460938 z m -4.148437,4.148438 q 0.07031,0.123047 0.07031,0.28125 2.408203,-2.53125 2.742188,-2.53125 l 0.07031,0.140625 v 0.07031 q -1.722656,1.582032 -2.8125,2.882813 v 0.28125 h 0.07031 q 3.09375,-2.882813 3.09375,-2.953125 0.07031,-0.720703 0.07031,-1.125 -1.441406,0.966797 -3.304687,2.953125 z m 0.703125,-1.335938 -0.703125,0.5625 v 0.28125 q 0.65039,-0.773437 0.84375,-0.773437 v -0.07031 z m -0.632813,3.023438 v 0.5625 q 1.792969,-1.863282 2.882813,-2.742188 0.140625,0.01758 0.140625,0.140625 v 0.07031 q -2.935547,2.794922 -2.953125,3.023437 v 0.07031 h 0.07031 q 1.300781,-1.59961 2.601563,-2.53125 h 0.07031 l 0.07031,0.140625 v 0.07031 q -2.355469,2.16211 -2.8125,2.8125 v 0.492188 q 2.566406,-3.023438 3.023437,-3.023438 v -1.898437 l 0.07031,-0.140625 h -0.07031 q -2.144531,1.898437 -3.09375,2.953125 z m -0.84375,-1.898438 q -0.210937,0.421875 -0.210937,0.5625 0.351562,3.111328 0.351562,3.445313 -0.07031,2.179687 -0.07031,2.8828122 0.210937,5.0976563 0.210937,5.4140626 -0.140625,1.1777343 -0.140625,1.6874999 v 0.070312 h 0.07031 q 0.28125,-1.0546875 0.28125,-1.3359375 -0.210938,-3.6035156 -0.351563,-12.2343747 l -0.07031,-0.492188 z m 0.914063,4.570313 v 0.140625 l 2.953125,-3.234375 H 15.453 q -2.162109,1.880859 -2.882812,3.09375 z m 0.07031,0.632812 h 0.07031 q 0.492187,-0.597656 2.8125,-3.023437 v -0.210938 q -1.810547,1.88086 -2.882813,3.234375 z m 0,0.492188 v 4.5703123 h 0.140625 Q 14.187375,-7.875 15.17175,-8.7539063 h 0.07031 q 0.140625,0.017578 0.140625,0.140625 v 0.070312 q -1.652344,1.5468751 -2.671875,2.8828126 0.07031,0.1230468 0.07031,0.3515625 h 0.07031 q 0,-0.1757813 2.671875,-3.0234376 v -1.265625 q -0.19336,0.017578 -2.460938,2.3906251 H 12.92175 l -0.07031,-0.140625 v -0.070312 q 1.792968,-1.9335938 2.742187,-2.6718753 v -1.125 L 13.203,-8.4023438 q -0.140625,0 -0.140625,-0.140625 v -0.070312 q 0.808594,-1.0898437 2.53125,-3.1640627 v -0.210937 q -0.914062,0.808593 -2.671875,3.0234372 h -0.07031 q -0.140625,0 -0.140625,-0.140625 0.703125,-1.0195312 2.8125,-3.3750002 H 15.453 l -2.390625,2.6015627 H 12.92175 q -0.140625,0 -0.140625,-0.1406247 l 2.742188,-3.023438 H 15.453 q -2.460937,2.513672 -2.460937,2.742188 h -0.28125 v -0.210938 q 0.08789,-0.193359 2.8125,-3.09375 v -0.28125 q -2.039063,2.039063 -2.882813,3.023438 z m 0.140625,6.1874998 h 0.140625 q 0,-0.1230469 1.96875,-2.3203125 0.140625,0.017578 0.140625,0.140625 v 0.140625 q -2.179687,2.4785156 -2.179687,2.671875 l -0.07031,0.3515624 q 1.195313,-1.3359374 2.601563,-2.7421874 0.140625,0 0.140625,0.2109375 l -2.53125,2.8124999 q -0.28125,0.3515625 -0.421875,0.9140625 2.162109,-2.5136718 3.023437,-3.1640624 h 0.07031 v -0.070312 q 0,-0.703125 -0.07031,-2.109375 -2.707031,2.6542968 -2.8125,3.1640625 z m -0.210937,2.7421875 v 0.070312 h 0.07031 q 1.880859,-2.1621094 2.8125,-3.09375 h 0.07031 q 0.140625,0.017578 0.140625,0.140625 v 0.070312 q -1.6875,1.7578124 -2.742188,3.09375 0.01758,0.140625 0.140625,0.140625 l 2.671875,-2.8828125 v -0.140625 l -0.07031,-0.84375 q -2.460938,2.5312499 -3.09375,3.4453125 z m 0.773437,0.6328125 v 0.070312 q 0.123047,0 1.195313,0.70312495 1.828125,-1.37109375 1.828125,-1.89843755 0.105468,0 0.421875,-0.421875 0,-0.140625 -0.140625,-0.140625 l -2.109375,2.17968755 h -0.07031 q -0.140625,0 -0.140625,-0.140625 l 1.96875,-2.25000005 q 0,-0.140625 -0.140625,-0.140625 H 16.0155 q 0,0.1582032 -1.898437,2.1796876 h -0.07031 q -0.140625,0 -0.140625,-0.140625 l 2.039063,-2.3906251 q -0.07031,-0.1230468 -0.07031,-0.28125 h -0.07031 q -1.107422,1.1074219 -2.460938,2.6718751 z m 3.726563,-1.3359376 q -0.01758,0.2988282 -2.109375,2.25000005 H 14.8905 q 0,0.10546875 0.28125,0.2109375 0.140625,-0.0878906 1.6875,-1.89843755 h 0.07031 q 0.140625,0.017578 0.140625,0.1406251 l -0.140625,0.2109375 v 0.070312 q 0.84375,-0.6855469 0.84375,-0.7734376 v -0.070312 q -0.210938,0 -0.703125,-0.140625 z m 0.421875,1.3359376 v 0.070312 h 0.140625 l 0.421875,-0.421875 h -0.07031 q -0.369141,0.3515625 -0.492187,0.3515625 z m -5.835938,-0.28125 v 0.070312 q 2.320313,2.39062495 3.09375,2.6015624 Q 14.8905,0.6328125 14.8905,0.45703125 13.097531,-0.50976562 11.867063,-1.5117187 q -0.07031,0 -0.210938,-0.070312 z m 5.0625,0.98437495 q -1.107422,1.265625 -1.546875,1.265625 0,0.10546875 -0.140625,0.63281245 1.669922,-1.82812495 1.828125,-1.82812495 v -0.0703125 z"
         id="path362" />
      <path
         d="m 26.616938,-20.496094 0.210937,0.28125 v 0.210938 q -0.5625,0.544922 -0.5625,5.414062 0.07031,2.074219 0.07031,2.742188 -0.07031,3.0058591 -0.07031,3.5156247 0.19336,4.5703125 0.492188,4.5703125 0.703125,0.5625 2.039062,0.84375 l 0.140625,0.3515625 q -0.36914,0.4746094 -0.632812,1.1953126 -0.527344,0.2285156 -3.234375,3.0937499 H 24.859125 Q 24.648188,1.265625 23.945063,1.0195312 23.22436,0.43945313 21.273188,-1.4414062 21.62475,-2.4609375 21.62475,-5.8710937 21.484125,-8.3847656 21.484125,-8.6835938 v -2.8828122 q 0,-1.96875 -0.351562,-4.5 0.474609,-1.634766 1.335937,-1.96875 3.726563,-2.460938 4.148438,-2.460938 z m -4.148438,4.148438 q 0.07031,0.123047 0.07031,0.28125 2.408203,-2.53125 2.742187,-2.53125 l 0.07031,0.140625 v 0.07031 q -1.722657,1.582032 -2.8125,2.882813 v 0.28125 h 0.07031 q 3.09375,-2.882813 3.09375,-2.953125 0.07031,-0.720703 0.07031,-1.125 -1.441407,0.966797 -3.304688,2.953125 z m 0.703125,-1.335938 -0.703125,0.5625 v 0.28125 q 0.650391,-0.773437 0.84375,-0.773437 v -0.07031 z m -0.632812,3.023438 v 0.5625 q 1.792968,-1.863282 2.882812,-2.742188 0.140625,0.01758 0.140625,0.140625 v 0.07031 q -2.935547,2.794922 -2.953125,3.023437 v 0.07031 h 0.07031 q 1.300781,-1.59961 2.601562,-2.53125 h 0.07031 l 0.07031,0.140625 v 0.07031 q -2.355469,2.16211 -2.8125,2.8125 v 0.492188 q 2.566406,-3.023438 3.023438,-3.023438 v -1.898437 l 0.07031,-0.140625 h -0.07031 q -2.144532,1.898437 -3.09375,2.953125 z m -0.84375,-1.898438 q -0.210938,0.421875 -0.210938,0.5625 0.351563,3.111328 0.351563,3.445313 -0.07031,2.179687 -0.07031,2.8828122 0.210938,5.0976563 0.210938,5.4140626 -0.140625,1.1777343 -0.140625,1.6874999 v 0.070312 H 21.906 q 0.28125,-1.0546875 0.28125,-1.3359375 -0.210937,-3.6035156 -0.351562,-12.2343747 l -0.07031,-0.492188 z m 0.914062,4.570313 v 0.140625 l 2.953125,-3.234375 h -0.07031 q -2.16211,1.880859 -2.882813,3.09375 z m 0.07031,0.632812 h 0.07031 q 0.492188,-0.597656 2.8125,-3.023437 v -0.210938 q -1.810547,1.88086 -2.882812,3.234375 z m 0,0.492188 v 4.5703123 h 0.140625 Q 24.226313,-7.875 25.210688,-8.7539063 H 25.281 q 0.140625,0.017578 0.140625,0.140625 v 0.070312 q -1.652344,1.5468751 -2.671875,2.8828126 0.07031,0.1230468 0.07031,0.3515625 h 0.07031 q 0,-0.1757813 2.671875,-3.0234376 v -1.265625 q -0.193359,0.017578 -2.460937,2.3906251 h -0.140625 l -0.07031,-0.140625 v -0.070312 q 1.792969,-1.9335938 2.742188,-2.6718753 v -1.125 l -2.390625,2.8125002 q -0.140625,0 -0.140625,-0.140625 v -0.070312 q 0.808593,-1.0898437 2.53125,-3.1640627 v -0.210937 q -0.914063,0.808593 -2.671875,3.0234372 h -0.07031 q -0.140625,0 -0.140625,-0.140625 0.703125,-1.0195312 2.8125,-3.3750002 h -0.07031 l -2.390625,2.6015627 h -0.140625 q -0.140625,0 -0.140625,-0.1406247 l 2.742187,-3.023438 h -0.07031 Q 23.031,-10.529297 23.031,-10.300781 h -0.28125 v -0.210938 q 0.08789,-0.193359 2.8125,-3.09375 v -0.28125 q -2.039062,2.039063 -2.882812,3.023438 z m 0.140625,6.1874998 h 0.140625 q 0,-0.1230469 1.96875,-2.3203125 0.140625,0.017578 0.140625,0.140625 v 0.140625 q -2.179688,2.4785156 -2.179688,2.671875 l -0.07031,0.3515624 q 1.195312,-1.3359374 2.601562,-2.7421874 0.140625,0 0.140625,0.2109375 L 23.031,-3.4101563 q -0.28125,0.3515625 -0.421875,0.9140625 2.16211,-2.5136718 3.023438,-3.1640624 h 0.07031 v -0.070312 q 0,-0.703125 -0.07031,-2.109375 -2.707032,2.6542968 -2.8125,3.1640625 z m -0.210938,2.7421875 v 0.070312 h 0.07031 q 1.880859,-2.1621094 2.8125,-3.09375 h 0.07031 q 0.140625,0.017578 0.140625,0.140625 v 0.070312 q -1.6875,1.7578124 -2.742187,3.09375 0.01758,0.140625 0.140625,0.140625 l 2.671875,-2.8828125 v -0.140625 l -0.07031,-0.84375 q -2.460937,2.5312499 -3.09375,3.4453125 z m 0.773438,0.6328125 v 0.070312 q 0.123047,0 1.195312,0.70312495 Q 26.406,-1.8984375 26.406,-2.4257813 q 0.105469,0 0.421875,-0.421875 0,-0.140625 -0.140625,-0.140625 l -2.109375,2.17968755 h -0.07031 q -0.140625,0 -0.140625,-0.140625 l 1.96875,-2.25000005 q 0,-0.140625 -0.140625,-0.140625 h -0.140625 q 0,0.1582032 -1.898438,2.1796876 h -0.07031 q -0.140625,0 -0.140625,-0.140625 l 2.039062,-2.3906251 q -0.07031,-0.1230468 -0.07031,-0.28125 H 25.8435 q -1.107422,1.1074219 -2.460937,2.6718751 z m 3.726562,-1.3359376 q -0.01758,0.2988282 -2.109375,2.25000005 h -0.07031 q 0,0.10546875 0.28125,0.2109375 0.140625,-0.0878906 1.6875,-1.89843755 h 0.07031 q 0.140625,0.017578 0.140625,0.1406251 L 26.9685,-1.7226562 v 0.070312 q 0.84375,-0.6855469 0.84375,-0.7734376 v -0.070312 q -0.210937,0 -0.703125,-0.140625 z M 27.531,-1.3007812 v 0.070312 h 0.140625 l 0.421875,-0.421875 h -0.07031 Q 27.654047,-1.3007812 27.531,-1.3007812 Z m -5.835937,-0.28125 v 0.070312 q 2.320312,2.39062495 3.09375,2.6015624 0.140625,-0.4570312 0.140625,-0.63281245 -1.792969,-0.96679687 -3.023438,-1.96874995 -0.07031,0 -0.210937,-0.070312 z m 5.0625,0.98437495 q -1.107422,1.265625 -1.546875,1.265625 0,0.10546875 -0.140625,0.63281245 1.669922,-1.82812495 1.828125,-1.82812495 v -0.0703125 z"
         id="path364" />
    </g>
  </g>
</svg>
